<svg width="24" height="24" viewBox="0 0 24 24" fill="none" xmlns="http://www.w3.org/2000/svg">
<path d="M12.0273 0H11.9727C5.36036 0 0 5.36035 0 11.9727V12.0273C0 18.6397 5.36036 24 11.9727 24H12.0273C18.6396 24 24 18.6397 24 12.0273V11.9727C24 5.36035 18.6396 0 12.0273 0Z" fill="white"/>
<path d="M5.72363 7.97698C5.40747 7.68352 5.25024 7.32029 5.25024 6.8881C5.25024 6.45591 5.40831 6.07669 5.72363 5.78239C6.03978 5.48894 6.44675 5.3418 6.94536 5.3418C7.44398 5.3418 7.83497 5.48894 8.15029 5.78239C8.46644 6.07585 8.62367 6.44498 8.62367 6.8881C8.62367 7.33122 8.4656 7.68352 8.15029 7.97698C7.83413 8.27043 7.43305 8.41757 6.94536 8.41757C6.45768 8.41757 6.03978 8.27043 5.72363 7.97698ZM8.35797 9.66033V18.6573H5.5151V9.66033H8.35797Z" fill="#58595B"/>
<path d="M17.8215 10.549C18.4412 11.2217 18.7506 12.145 18.7506 13.3204V18.4983H16.0507V13.6854C16.0507 13.0926 15.8968 12.6318 15.5899 12.3039C15.283 11.9759 14.8693 11.8111 14.3514 11.8111C13.8334 11.8111 13.4197 11.9751 13.1128 12.3039C12.8059 12.6318 12.652 13.0926 12.652 13.6854V18.4983H9.93616V9.63505H12.652V10.8105C12.927 10.4187 13.2978 10.1093 13.7636 9.88142C14.2295 9.65356 14.7533 9.54004 15.336 9.54004C16.3736 9.54004 17.2026 9.87637 17.8215 10.5482V10.549Z" fill="#58595B"/>
</svg>
